<svg width="250" height="250" viewBox="0 0 250 250" fill="none" xmlns="http://www.w3.org/2000/svg">
<path d="M0 0H250V250H0V0Z" fill="#3A0CA3"/>
<path d="M33.064 195L37.544 172.6H47.656C50.024 172.6 52.0613 172.984 53.768 173.752C55.4747 174.52 56.7867 175.619 57.704 177.048C58.6213 178.456 59.08 180.141 59.08 182.104C59.08 184.088 58.728 185.869 58.024 187.448C57.3413 189.027 56.3707 190.381 55.112 191.512C53.8747 192.643 52.4027 193.507 50.696 194.104C48.9893 194.701 47.112 195 45.064 195H33.064ZM41.8 189.112H45.32C46.664 189.112 47.784 188.824 48.68 188.248C49.5973 187.651 50.2907 186.861 50.76 185.88C51.2293 184.877 51.464 183.768 51.464 182.552C51.464 181.677 51.2827 180.941 50.92 180.344C50.5787 179.747 50.056 179.288 49.352 178.968C48.6693 178.648 47.816 178.488 46.792 178.488H43.912L41.8 189.112ZM69.2295 180.92H79.2135L78.1255 186.36H68.1415L69.2295 180.92ZM68.0455 189.304H79.2775L78.1255 195H59.5015L63.9815 172.6H82.1895L81.0375 178.296H70.2535L68.0455 189.304ZM81.0328 195L85.5128 172.6H91.6568L97.6408 187.224H94.3768L105.897 172.6H112.329L107.913 195H101.033L103.369 182.968L104.457 182.904L96.7128 192.984H93.3848L89.0328 182.872L90.3128 182.968L87.9128 195H81.0328ZM111.564 195L116.044 172.6H123.596L119.116 195H111.564ZM135.488 195.512C133.184 195.512 131.168 195.096 129.44 194.264C127.712 193.411 126.368 192.237 125.408 190.744C124.469 189.229 124 187.48 124 185.496C124 183.533 124.341 181.731 125.024 180.088C125.728 178.445 126.709 177.027 127.968 175.832C129.226 174.637 130.72 173.72 132.448 173.08C134.176 172.419 136.074 172.088 138.144 172.088C140.298 172.088 142.208 172.472 143.872 173.24C145.536 174.008 146.773 175.117 147.584 176.568L142.144 180.824C141.674 179.992 141.066 179.352 140.319 178.904C139.573 178.435 138.688 178.2 137.664 178.2C136.768 178.2 135.946 178.371 135.2 178.712C134.474 179.032 133.845 179.501 133.312 180.12C132.778 180.717 132.362 181.432 132.064 182.264C131.765 183.096 131.616 184.013 131.616 185.016C131.616 185.891 131.808 186.659 132.192 187.32C132.576 187.981 133.109 188.493 133.792 188.856C134.496 189.219 135.306 189.4 136.224 189.4C137.098 189.4 137.952 189.197 138.784 188.792C139.637 188.387 140.448 187.725 141.216 186.808L145.664 191.064C144.298 192.728 142.773 193.891 141.088 194.552C139.424 195.192 137.557 195.512 135.488 195.512ZM158.703 195.512C156.378 195.512 154.362 195.085 152.655 194.232C150.97 193.379 149.658 192.205 148.719 190.712C147.802 189.197 147.343 187.459 147.343 185.496C147.343 183.512 147.685 181.709 148.367 180.088C149.071 178.445 150.053 177.027 151.311 175.832C152.57 174.637 154.063 173.72 155.791 173.08C157.519 172.419 159.407 172.088 161.455 172.088C163.781 172.088 165.786 172.515 167.471 173.368C169.178 174.221 170.49 175.405 171.407 176.92C172.346 178.413 172.815 180.141 172.815 182.104C172.815 184.088 172.463 185.901 171.759 187.544C171.077 189.165 170.106 190.573 168.847 191.768C167.589 192.963 166.095 193.891 164.367 194.552C162.639 195.192 160.751 195.512 158.703 195.512ZM159.343 189.4C160.282 189.4 161.103 189.219 161.807 188.856C162.533 188.493 163.151 187.992 163.663 187.352C164.175 186.712 164.559 185.987 164.815 185.176C165.071 184.344 165.199 183.469 165.199 182.552C165.199 181.677 165.018 180.92 164.655 180.28C164.314 179.619 163.813 179.107 163.151 178.744C162.511 178.381 161.733 178.2 160.815 178.2C159.898 178.2 159.077 178.381 158.351 178.744C157.626 179.107 157.007 179.608 156.495 180.248C155.983 180.888 155.599 181.624 155.343 182.456C155.087 183.267 154.959 184.131 154.959 185.048C154.959 185.901 155.13 186.659 155.471 187.32C155.834 187.981 156.335 188.493 156.975 188.856C157.637 189.219 158.426 189.4 159.343 189.4ZM173.22 195L177.7 172.6H187.748C190.714 172.6 193.007 173.251 194.628 174.552C196.25 175.832 197.06 177.635 197.06 179.96C197.06 181.837 196.591 183.48 195.652 184.888C194.735 186.296 193.423 187.395 191.716 188.184C190.031 188.973 188.036 189.368 185.732 189.368H178.5L182.532 186.2L180.772 195H173.22ZM186.916 195L182.308 186.84H190.084L194.756 195H186.916ZM182.34 187.096L179.684 183.672H186.116C187.162 183.672 187.972 183.416 188.548 182.904C189.124 182.371 189.412 181.635 189.412 180.696C189.412 179.885 189.156 179.309 188.644 178.968C188.154 178.605 187.471 178.424 186.596 178.424H180.74L184.772 174.904L182.34 187.096ZM197.064 195L201.544 172.6H211.496C214.504 172.6 216.819 173.251 218.44 174.552C220.083 175.853 220.904 177.677 220.904 180.024C220.904 181.901 220.435 183.555 219.496 184.984C218.579 186.413 217.267 187.523 215.56 188.312C213.875 189.101 211.88 189.496 209.576 189.496H202.344L206.376 186.2L204.616 195H197.064ZM206.184 187.096L203.528 183.672H209.96C211.005 183.672 211.816 183.416 212.392 182.904C212.968 182.371 213.256 181.635 213.256 180.696C213.256 179.885 213 179.309 212.488 178.968C211.997 178.605 211.315 178.424 210.44 178.424H204.584L208.616 174.904L206.184 187.096Z" fill="white"/>
<path d="M62.656 146L80.576 56.4H115.648C124.693 56.4 132.416 57.936 138.816 61.008C145.216 63.9947 150.08 68.2187 153.408 73.68C156.821 79.1413 158.528 85.6267 158.528 93.136C158.528 100.987 157.205 108.197 154.56 114.768C151.915 121.253 148.117 126.843 143.168 131.536C138.304 136.144 132.459 139.728 125.632 142.288C118.805 144.763 111.168 146 102.72 146H62.656ZM77.632 134.864H103.104C111.979 134.864 119.573 133.115 125.888 129.616C132.203 126.032 137.067 121.168 140.48 115.024C143.893 108.795 145.6 101.755 145.6 93.904C145.6 88.528 144.448 83.8773 142.144 79.952C139.84 75.9413 136.341 72.8693 131.648 70.736C127.04 68.6027 121.28 67.536 114.368 67.536H91.072L77.632 134.864Z" fill="white"/>
<path d="M144.432 147.024C135.387 147.024 127.664 145.445 121.264 142.288C114.949 139.131 110.085 134.736 106.672 129.104C103.344 123.387 101.68 116.773 101.68 109.264C101.68 101.84 102.96 94.8853 105.52 88.4C108.08 81.8293 111.749 76.0693 116.528 71.12C121.392 66.1707 127.152 62.3307 133.808 59.6C140.549 56.784 148.144 55.376 156.592 55.376C164.016 55.376 170.587 56.5707 176.304 58.96C182.021 61.3493 186.416 64.8053 189.488 69.328L180.272 77.264C177.627 73.8507 174.256 71.248 170.16 69.456C166.064 67.664 161.243 66.768 155.696 66.768C149.296 66.768 143.536 67.8773 138.416 70.096C133.381 72.2293 129.072 75.2587 125.488 79.184C121.904 83.024 119.173 87.4613 117.296 92.496C115.419 97.5307 114.48 102.864 114.48 108.496C114.48 113.872 115.632 118.608 117.936 122.704C120.325 126.715 123.781 129.872 128.304 132.176C132.912 134.48 138.587 135.632 145.328 135.632C150.789 135.632 155.781 134.736 160.304 132.944C164.912 131.152 168.965 128.507 172.464 125.008L179.888 133.456C175.792 137.979 170.672 141.392 164.528 143.696C158.384 145.915 151.685 147.024 144.432 147.024Z" fill="white"/>
<path d="M110.5 73C115 67.9313 133.5 70.4222 135.44 77.4222" stroke="#3A0CA3" stroke-width="5" stroke-linecap="round"/>
<path d="M132 56C138.373 57 150.5 65 154.5 71" stroke="#3A0CA3" stroke-width="5" stroke-linecap="round"/>
<path d="M122 124C125.5 129 135.42 133 143 133" stroke="#3A0CA3" stroke-width="5" stroke-linecap="round"/>
<path d="M105 131C108.409 136.123 117.592 144.206 123.5 146" stroke="#3A0CA3" stroke-width="5" stroke-linecap="round"/>
<line x1="83.1693" y1="88.4183" x2="64.1693" y2="67.4183" stroke="#3A0CA3" stroke-width="40"/>
<rect x="63" y="84" width="30" height="30" fill="#3A0CA3"/>
</svg>
